<svg width="22" height="21" viewBox="0 0 22 21" fill="none" xmlns="http://www.w3.org/2000/svg">
<path d="M10.167 14.382L9.914 12.6L9.969 12.545C11.2523 12.4937 11.894 12.1527 11.894 11.522C11.894 11.2727 11.806 11.082 11.63 10.95C11.454 10.8107 11.2047 10.741 10.882 10.741C10.288 10.741 9.738 10.994 9.232 11.5L8.22 10.389C8.93867 9.597 9.837 9.201 10.915 9.201C11.7217 9.201 12.367 9.40267 12.851 9.806C13.335 10.2093 13.577 10.774 13.577 11.5C13.577 12.6807 12.8547 13.4177 11.41 13.711L11.289 14.382H10.167ZM9.804 17V15.24H11.586V17H9.804Z" fill="#F54082"/>
<path d="M3.67955 18.4555L1.28718 8.22776C1.14044 7.60039 1.61659 7 2.2609 7H19.7391C20.3834 7 20.8596 7.60039 20.7128 8.22776L18.3204 18.4555C18.1088 19.3602 17.3021 20 16.373 20H5.62698C4.6979 20 3.89116 19.3602 3.67955 18.4555Z" stroke="#3298D7" stroke-width="1.5"/>
<path d="M5 7L9 1" stroke="#3298D7" stroke-width="1.5" stroke-linecap="round"/>
<path d="M17 7L13 1" stroke="#3298D7" stroke-width="1.5" stroke-linecap="round"/>
</svg>
