<svg width="20" height="24" viewBox="0 0 20 24" fill="none" xmlns="http://www.w3.org/2000/svg">
<path d="M5.0498 17.5C5.0498 13.7721 8.07188 10.75 11.7998 10.75C15.5277 10.75 18.5498 13.7721 18.5498 17.5V23.25H5.0498V17.5Z" stroke="#3297D7" stroke-width="1.5"/>
<circle cx="11.7998" cy="4.5" r="3.75" stroke="#3297D7" stroke-width="1.5"/>
<path fill-rule="evenodd" clip-rule="evenodd" d="M6.58571 12H3.58571V14.5H1V17.5H3.58571V20H6.58571V17.5H9V14.5H6.58571V12Z" fill="white"/>
<path d="M3.58571 12V11.25C3.1715 11.25 2.83571 11.5858 2.83571 12H3.58571ZM6.58571 12H7.33571C7.33571 11.5858 6.99993 11.25 6.58571 11.25V12ZM3.58571 14.5V15.25C3.99993 15.25 4.33571 14.9142 4.33571 14.5H3.58571ZM1 14.5V13.75C0.585786 13.75 0.25 14.0858 0.25 14.5H1ZM1 17.5H0.25C0.25 17.9142 0.585786 18.25 1 18.25L1 17.5ZM3.58571 17.5H4.33571C4.33571 17.0858 3.99993 16.75 3.58571 16.75V17.5ZM3.58571 20H2.83571C2.83571 20.4142 3.1715 20.75 3.58571 20.75V20ZM6.58571 20V20.75C6.99993 20.75 7.33571 20.4142 7.33571 20H6.58571ZM6.58571 17.5V16.75C6.1715 16.75 5.83571 17.0858 5.83571 17.5H6.58571ZM9 17.5V18.25C9.41421 18.25 9.75 17.9142 9.75 17.5H9ZM9 14.5H9.75C9.75 14.0858 9.41421 13.75 9 13.75V14.5ZM6.58571 14.5H5.83571C5.83571 14.9142 6.1715 15.25 6.58571 15.25V14.5ZM3.58571 12.75H6.58571V11.25H3.58571V12.75ZM4.33571 14.5V12H2.83571V14.5H4.33571ZM1 15.25H3.58571V13.75H1V15.25ZM1.75 17.5V14.5H0.25V17.5H1.75ZM3.58571 16.75H1V18.25H3.58571V16.75ZM4.33571 20V17.5H2.83571V20H4.33571ZM6.58571 19.25H3.58571V20.75H6.58571V19.25ZM5.83571 17.5V20H7.33571V17.5H5.83571ZM9 16.75H6.58571V18.25H9V16.75ZM8.25 14.5V17.5H9.75V14.5H8.25ZM6.58571 15.25H9V13.75H6.58571V15.25ZM5.83571 12V14.5H7.33571V12H5.83571Z" fill="#F54082"/>
</svg>
