<svg width="33" height="33" viewBox="0 0 33 33" fill="none" xmlns="http://www.w3.org/2000/svg">
<path d="M5.775 0.75H27.225C30.0002 0.75 32.25 2.99977 32.25 5.775V27.225C32.25 30.0002 30.0002 32.25 27.225 32.25H5.775C2.99977 32.25 0.75 30.0002 0.75 27.225V5.775C0.75 2.99977 2.99977 0.75 5.775 0.75Z" stroke="#98CBEB" stroke-width="1.5"/>
<path d="M24.1606 9.05332L7.54869 15.224C6.87217 15.486 6.78967 16.2762 7.47856 16.5026L11.6862 17.932L21.5535 11.9322C21.5926 11.9108 21.6384 11.9038 21.6824 11.9124C21.7265 11.9211 21.7658 11.9449 21.793 11.9793C21.8202 12.0138 21.8335 12.0566 21.8304 12.0997C21.8273 12.1429 21.8081 12.1835 21.7762 12.2141L14.0128 18.9287L13.4889 22.8995C13.4802 22.9607 13.4917 23.0229 13.5218 23.0773C13.5519 23.1318 13.599 23.1758 13.6565 23.203C13.714 23.2303 13.779 23.2394 13.8422 23.2291C13.9054 23.2188 13.9636 23.1896 14.0086 23.1457L16.4837 20.7871L20.6418 23.8962C20.7686 23.9591 20.9082 23.9944 21.0507 23.9994C21.1933 24.0044 21.3352 23.9791 21.4664 23.9252C21.5976 23.8714 21.7148 23.7903 21.8097 23.6878C21.9047 23.5853 21.9749 23.464 22.0155 23.3324L24.9856 9.69262C25.0098 9.58904 25.0034 9.481 24.9671 9.38076C24.9307 9.28051 24.8659 9.19209 24.78 9.12551C24.6941 9.05893 24.5905 9.01688 24.481 9.00412C24.3715 8.99136 24.2605 9.0084 24.1606 9.05332Z" fill="#98CBEB"/>
</svg>
