<svg width="33" height="33" viewBox="0 0 33 33" fill="none" xmlns="http://www.w3.org/2000/svg">
<path d="M5.775 0.75H27.225C30.0002 0.75 32.25 2.99977 32.25 5.775V27.225C32.25 30.0002 30.0002 32.25 27.225 32.25H5.775C2.99977 32.25 0.75 30.0002 0.75 27.225V5.775C0.75 2.99977 2.99977 0.75 5.775 0.75Z" stroke="#98CBEB" stroke-width="1.5"/>
<path d="M16.5 9.375C16.8461 9.375 17.1845 9.47764 17.4723 9.66993C17.76 9.86222 17.9843 10.1355 18.1168 10.4553C18.2492 10.7751 18.2839 11.1269 18.2164 11.4664C18.1489 11.8059 17.9822 12.1177 17.7374 12.3624C17.4927 12.6072 17.1809 12.7738 16.8414 12.8414C16.5019 12.9089 16.1501 12.8742 15.8303 12.7418C15.5105 12.6093 15.2372 12.385 15.0449 12.0972C14.8526 11.8095 14.75 11.4711 14.75 11.125C14.7505 10.661 14.9351 10.2162 15.2631 9.88814C15.5912 9.56007 16.036 9.37553 16.5 9.375V9.375ZM16.5 6.75C15.6347 6.75 14.7888 7.00659 14.0694 7.48732C13.3499 7.96805 12.7892 8.65133 12.458 9.45076C12.1269 10.2502 12.0403 11.1299 12.2091 11.9785C12.3779 12.8272 12.7946 13.6067 13.4064 14.2186C14.0183 14.8304 14.7978 15.2471 15.6465 15.4159C16.4951 15.5847 17.3748 15.4981 18.1742 15.167C18.9737 14.8358 19.657 14.2751 20.1377 13.5556C20.6184 12.8362 20.875 11.9903 20.875 11.125C20.875 9.96468 20.4141 8.85188 19.5936 8.03141C18.7731 7.21094 17.6603 6.75 16.5 6.75V6.75Z" fill="#98CBEB"/>
<path d="M16.5 19.2197C15.0115 19.2206 13.5507 18.8171 12.2736 18.0525C11.9955 17.885 11.7952 17.6139 11.7167 17.2989C11.6383 16.9838 11.6881 16.6505 11.8552 16.3721C12.0223 16.0938 12.293 15.8931 12.6079 15.8142C12.9229 15.7353 13.2563 15.7846 13.5349 15.9513C14.4504 16.4862 15.4936 16.7634 16.5538 16.7535C17.6141 16.7436 18.6519 16.4471 19.5573 15.8953C19.6937 15.8094 19.8457 15.7513 20.0046 15.7243C20.1635 15.6973 20.3262 15.702 20.4833 15.7379C20.6404 15.7739 20.7888 15.8405 20.9201 15.934C21.0514 16.0275 21.163 16.1459 21.2484 16.2826C21.3339 16.4192 21.3915 16.5714 21.4181 16.7304C21.4446 16.8893 21.4395 17.052 21.403 17.209C21.3666 17.3659 21.2995 17.5142 21.2057 17.6452C21.1118 17.7763 20.9931 17.8875 20.8562 17.9725C19.5499 18.7889 18.0403 19.2211 16.5 19.2197V19.2197Z" fill="#98CBEB"/>
<path d="M19.9999 23.9008C19.839 23.901 19.6796 23.8694 19.5309 23.8078C19.3822 23.7462 19.2471 23.6558 19.1335 23.5419L16.4999 20.9083L13.8664 23.5419C13.7527 23.656 13.6177 23.7466 13.469 23.8085C13.3203 23.8704 13.1608 23.9024 12.9997 23.9026C12.8387 23.9028 12.6791 23.8712 12.5303 23.8097C12.3814 23.7482 12.2461 23.6579 12.1322 23.544C12.0183 23.4301 11.9279 23.2949 11.8663 23.1461C11.8047 22.9972 11.7731 22.8377 11.7732 22.6766C11.7733 22.5156 11.8052 22.3561 11.867 22.2074C11.9288 22.0586 12.0194 21.9235 12.1335 21.8098L16.4999 17.4434L20.8664 21.8098C21.0377 21.9811 21.1543 22.1994 21.2016 22.437C21.2488 22.6747 21.2245 22.921 21.1318 23.1448C21.039 23.3686 20.882 23.5599 20.6805 23.6944C20.4791 23.829 20.2422 23.9008 19.9999 23.9008Z" fill="#98CBEB"/>
</svg>
