<svg width="33" height="33" viewBox="0 0 33 33" fill="none" xmlns="http://www.w3.org/2000/svg">
<path d="M5.775 0.75H27.225C30.0002 0.75 32.25 2.99977 32.25 5.775V27.225C32.25 30.0002 30.0002 32.25 27.225 32.25H5.775C2.99977 32.25 0.75 30.0002 0.75 27.225V5.775C0.75 2.99977 2.99977 0.75 5.775 0.75Z" stroke="#98CBEB" stroke-width="1.5"/>
<path d="M7.64938 11.5985H10.6847C10.7481 11.5984 10.8101 11.6179 10.8624 11.6544C10.9146 11.691 10.9546 11.7428 10.9771 11.803C11.3131 12.6811 12.7082 16.1173 13.9848 16.398C14.9333 16.398 14.5974 11.827 13.3919 11.827C13.0758 11.827 13.9531 11.2577 14.0124 11.2336C15.1326 10.9221 16.3148 10.9221 17.435 11.2336C18.0397 11.4902 18.1425 12.208 18.1583 12.8174C18.1741 13.4269 17.4864 16.0251 18.3915 16.3058C19.5771 16.6747 21.1027 12.9016 21.4584 11.9754C21.4815 11.916 21.5218 11.865 21.574 11.8292C21.6262 11.7934 21.6879 11.7745 21.7508 11.7749H25.13C25.1822 11.7748 25.2336 11.7877 25.2797 11.8126C25.3258 11.8376 25.3651 11.8737 25.394 11.9178C25.423 11.9618 25.4408 12.0125 25.4457 12.0653C25.4507 12.118 25.4427 12.1712 25.4224 12.22C24.7264 13.8309 23.8919 15.3766 22.9286 16.839C22.8467 16.9597 22.8083 17.1053 22.8198 17.2514C22.8313 17.3975 22.8921 17.535 22.9918 17.641C24.0036 18.7396 26.7701 21.851 25.1893 21.851H21.7785C21.6904 21.8513 21.6032 21.8324 21.5228 21.7958C21.4423 21.7591 21.3705 21.7055 21.3122 21.6385C20.7826 21.0451 19.2412 19.3932 18.5456 19.5255C17.9686 19.6337 17.9133 20.6281 17.9409 21.2777C17.9496 21.4453 17.8933 21.6096 17.7839 21.7356C17.6746 21.8615 17.521 21.9389 17.356 21.9513C16.7513 21.9874 15.9253 22.0034 15.8502 21.9994C13.4394 21.843 12.0126 20.2111 10.6491 18.3908C9.22083 16.4608 8.10667 14.3112 7.34901 12.0235C7.33353 11.9751 7.32947 11.9237 7.33717 11.8734C7.34487 11.8231 7.36411 11.7754 7.39334 11.734C7.42256 11.6926 7.46097 11.6588 7.50544 11.6353C7.54992 11.6118 7.59922 11.5992 7.64938 11.5985V11.5985Z" fill="#98CBEB"/>
</svg>
