<svg width="18" height="17" viewBox="0 0 18 17" fill="none" xmlns="http://www.w3.org/2000/svg">
<path d="M2.69432 9.18149L2.60898 9.05644C2.40284 8.78182 1 6.91183 1 4.94546C1 3.0709 1.91867 2.09484 2.34009 1.64707C2.36122 1.62463 2.38068 1.60394 2.40651 1.57574C2.58363 1.37904 2.77715 1.2454 2.96474 1.15666C3.21768 1.03698 3.45791 1 3.63426 1C3.76692 1 4.42623 1.02869 4.42623 1.02869C4.44622 1.02739 5.1274 0.982619 5.48642 1.84788C5.52454 1.93966 5.7189 2.41414 5.92268 2.91169C6.24147 3.68999 6.58736 4.53437 6.64727 4.65638C6.70857 4.77767 6.75833 4.91328 6.77386 5.065C6.79058 5.22797 6.76761 5.40196 6.67783 5.58483L6.67669 5.58598C6.65794 5.62376 6.63931 5.66221 6.62155 5.69891C6.51944 5.90969 6.44381 6.06589 6.26135 6.28034L6.2602 6.28152C6.18524 6.36879 6.12361 6.4437 6.062 6.51855C5.9267 6.6829 5.79189 6.8467 5.67276 6.96697C5.56502 7.07587 5.51829 7.3144 5.55391 7.37656C5.68695 7.6087 6.02177 8.1598 6.5172 8.77837C6.82333 9.16057 7.18984 9.5679 7.60633 9.9405C8.77064 10.9825 9.79222 11.4281 10.3168 11.6568C10.4204 11.702 10.5045 11.7387 10.5907 11.7823C10.7256 11.8493 10.8231 11.8787 10.8939 11.87C10.945 11.8638 10.9971 11.8259 11.0575 11.7564V11.7552C11.1989 11.5928 11.5309 11.206 11.8091 10.8615C11.9848 10.6439 12.146 10.4366 12.2373 10.2981C12.4189 10.0199 12.6149 9.90297 12.8396 9.87734C13.0377 9.85477 13.2226 9.913 13.4347 9.99C13.5855 10.0447 13.9663 10.2206 14.3949 10.4254C15.0581 10.7424 15.8339 11.1262 16.0581 11.2415C16.1171 11.2703 16.1784 11.2996 16.2357 11.3269C16.561 11.4822 16.7778 11.5857 16.9031 11.7944L16.9043 11.7956C16.9867 11.9348 17.0309 12.2951 16.9751 12.7531C16.9367 13.0684 16.8539 13.4514 16.7076 13.8638C16.5435 14.3249 16.1149 14.7629 15.6239 15.1094C15.0321 15.5272 14.3288 15.8247 13.8988 15.8655C13.8034 15.8745 13.7151 15.8961 13.6248 15.9182C13.0939 16.048 12.4995 16.1934 9.21482 14.8978C5.59416 13.4684 3.21241 9.9474 2.69432 9.18149ZM2.69432 9.18149L2.61015 9.05953C2.69432 9.18149 2.65031 9.11643 2.69432 9.18149Z" stroke="#3297D7"/>
</svg>
